<svg width="16" height="16" viewBox="0 0 16 16" fill="none" xmlns="http://www.w3.org/2000/svg">
<path d="M8 14C11.3137 14 14 11.3137 14 8C14 4.68629 11.3137 2 8 2C4.68629 2 2 4.68629 2 8C2 11.3137 4.68629 14 8 14Z" stroke="#1F1F1F" stroke-width="1.2" stroke-linecap="round" stroke-linejoin="round"/>
<path d="M6.22241 6.22201C6.22241 5.86838 6.3863 5.52924 6.67802 5.2792C6.96975 5.02915 7.36541 4.88867 7.77797 4.88867H8.22241C8.63497 4.88867 9.03063 5.02915 9.32236 5.2792C9.61408 5.52924 9.77797 5.86838 9.77797 6.22201C9.79433 6.51056 9.71649 6.79663 9.55617 7.03711C9.39585 7.27759 9.16173 7.45946 8.88908 7.55534C8.61642 7.68317 8.3823 7.92567 8.22198 8.24632C8.06166 8.56696 7.98382 8.94837 8.00019 9.33312M8.00019 11.1109V11.1153" stroke="#1F1F1F" stroke-width="1.2" stroke-linecap="round" stroke-linejoin="round"/>
</svg>
