<svg width="24" height="24" viewBox="0 0 24 24" fill="none" xmlns="http://www.w3.org/2000/svg">
<path d="M6 9H12M4 5H8M6 5V16C6 16.2652 6.10536 16.5196 6.29289 16.7071C6.48043 16.8946 6.73478 17 7 17H11M13 7H19C19.5523 7 20 7.44772 20 8V10C20 10.5523 19.5523 11 19 11H13C12.4477 11 12 10.5523 12 10V8C12 7.44772 12.4477 7 13 7Z" stroke="#1F1F1F" stroke-width="1.8" stroke-linecap="round" stroke-linejoin="round"/>
<path d="M18 14V18H22M18 14C15.7909 14 14 15.7909 14 18C14 20.2091 15.7909 22 18 22C20.2091 22 22 20.2091 22 18M18 14C20.2091 14 22 15.7909 22 18" stroke="#1F1F1F" stroke-width="1.8" stroke-linecap="round" stroke-linejoin="round"/>
</svg>
