<svg width="24" height="24" viewBox="0 0 24 24" fill="none" xmlns="http://www.w3.org/2000/svg">
<path fill-rule="evenodd" clip-rule="evenodd" d="M12 4.75C11.3096 4.75 10.75 5.30964 10.75 6C10.75 6.69036 11.3096 7.25 12 7.25H12.02C12.7104 7.25 13.27 6.69036 13.27 6C13.27 5.30964 12.7104 4.75 12.02 4.75H12ZM10 10.1C9.50294 10.1 9.1 10.5029 9.1 11C9.1 11.4971 9.50294 11.9 10 11.9H11.1V19C11.1 19.4971 11.5029 19.9 12 19.9H14C14.4971 19.9 14.9 19.4971 14.9 19C14.9 18.5029 14.4971 18.1 14 18.1H12.9V11C12.9 10.5029 12.4971 10.1 12 10.1H10Z" fill="#1F1F1F"/>
</svg>
