<svg width="24" height="24" viewBox="0 0 24 24" fill="none" xmlns="http://www.w3.org/2000/svg">
<path d="M12.0006 13.9998C13.6575 13.9998 15.0006 12.6566 15.0006 10.9998C15.0006 9.3429 13.6575 7.99976 12.0006 7.99976C10.3438 7.99976 9.00061 9.3429 9.00061 10.9998C9.00061 12.6566 10.3438 13.9998 12.0006 13.9998Z" stroke="#1F1F1F" stroke-width="1.8" stroke-linecap="round" stroke-linejoin="round"/>
<path d="M17.6576 16.6567L13.4146 20.8997C13.0396 21.2743 12.5312 21.4848 12.0011 21.4848C11.471 21.4848 10.9626 21.2743 10.5876 20.8997L6.34361 16.6567C5.22484 15.5379 4.46295 14.1124 4.1543 12.5606C3.84565 11.0087 4.0041 9.40022 4.60962 7.93844C5.21513 6.47665 6.24051 5.22725 7.5561 4.34821C8.87168 3.46918 10.4184 3 12.0006 3C13.5828 3 15.1295 3.46918 16.4451 4.34821C17.7607 5.22725 18.7861 6.47665 19.3916 7.93844C19.9971 9.40022 20.1556 11.0087 19.8469 12.5606C19.5383 14.1124 18.7764 15.5379 17.6576 16.6567Z" stroke="#1F1F1F" stroke-width="1.8" stroke-linecap="round" stroke-linejoin="round"/>
</svg>
