<svg width="24" height="24" viewBox="0 0 24 24" fill="none" xmlns="http://www.w3.org/2000/svg">
<path fill-rule="evenodd" clip-rule="evenodd" d="M12.6364 1.36361C12.2849 1.01214 11.7151 1.01214 11.3636 1.36361L8.3636 4.36361C8.01213 4.71508 8.01213 5.28493 8.3636 5.6364C8.71507 5.98787 9.28492 5.98787 9.63639 5.6364L11.1 4.1728V14C11.1 14.4971 11.5029 14.9 12 14.9C12.4971 14.9 12.9 14.4971 12.9 14V4.1728L14.3636 5.6364C14.7151 5.98787 15.2849 5.98787 15.6364 5.6364C15.9879 5.28493 15.9879 4.71508 15.6364 4.36361L12.6364 1.36361ZM3.1 19C3.1 19.7691 3.40553 20.5068 3.94939 21.0506C4.49324 21.5945 5.23087 21.9 6 21.9H8H16H18C18.7691 21.9 19.5068 21.5945 20.0506 21.0506C20.5945 20.5068 20.9 19.7691 20.9 19V11V10C20.9 9.23088 20.5945 8.49325 20.0506 7.9494C19.5068 7.40554 18.7691 7.10001 18 7.10001H17C16.5029 7.10001 16.1 7.50295 16.1 8.00001C16.1 8.49706 16.5029 8.90001 17 8.90001H18C18.2917 8.90001 18.5715 9.0159 18.7778 9.22219C18.9841 9.42848 19.1 9.70827 19.1 10V11V19C19.1 19.2917 18.9841 19.5715 18.7778 19.7778C18.5715 19.9841 18.2917 20.1 18 20.1H16H8H6C5.70826 20.1 5.42847 19.9841 5.22218 19.7778C5.01589 19.5715 4.9 19.2917 4.9 19V11V10C4.9 9.70827 5.01589 9.42848 5.22218 9.22219C5.42847 9.0159 5.70826 8.90001 6 8.90001H7C7.49706 8.90001 7.9 8.49706 7.9 8.00001C7.9 7.50295 7.49706 7.10001 7 7.10001H6C5.23087 7.10001 4.49324 7.40554 3.94939 7.9494C3.40553 8.49325 3.1 9.23088 3.1 10V11V19Z" fill="#1F1F1F"/>
</svg>
