<svg width="154" height="28" viewBox="0 0 154 28" fill="none" xmlns="http://www.w3.org/2000/svg">
<path d="M140.291 21.9119C135.924 21.9119 132.378 18.318 132.378 13.8927C132.378 9.46743 135.924 5.87356 140.291 5.87356C144.658 5.87356 148.204 9.46743 148.204 13.8927C148.204 18.318 144.658 21.9119 140.291 21.9119ZM140.291 0C132.722 0 126.582 6.22222 126.582 13.8927C126.582 21.5632 132.722 27.7854 140.291 27.7854C147.86 27.7854 154 21.5632 154 13.8927C154 6.22222 147.86 0 140.291 0ZM20.4575 18.0766C19.0548 20.3563 16.5671 21.9119 13.7089 21.9119C9.34215 21.9119 5.79584 18.318 5.79584 13.8927C5.79584 9.46743 9.34215 5.87356 13.7089 5.87356C16.5671 5.87356 19.0813 7.4023 20.4575 9.70881L25.4064 6.65134C22.9981 2.65517 18.6578 0 13.7089 0C6.13989 0 0 6.22222 0 13.8927C0 21.5632 6.13989 27.7854 13.7089 27.7854C18.6578 27.7854 22.9981 25.1303 25.4064 21.1341C23.8715 20.1954 22.9187 19.5785 20.4575 18.0766ZM31.9433 17.2184C31.9433 14.4828 34.1134 12.2835 36.8129 12.2835C39.5123 12.2835 41.6824 14.4828 41.6824 17.2184C41.6824 19.954 39.5123 22.1533 36.8129 22.1533C34.1134 22.1533 31.9433 19.9272 31.9433 17.2184ZM26.1474 17.2452C26.1474 23.0651 30.5671 27.7854 36.0718 27.9464V27.9732C36.1512 27.9732 36.2306 27.9732 36.31 27.9732C36.3365 27.9732 36.3365 27.9732 36.3629 27.9732C38.3743 27.9732 40.2268 27.3831 41.8147 26.3372V27.3027H47.4783V7.16092H41.5501V7.99234C40.0151 7.05364 38.242 6.51724 36.3629 6.51724C36.1512 6.51724 35.9395 6.51724 35.8072 6.51724V6.54406C30.4348 6.83908 26.1474 11.5057 26.1474 17.2452ZM72.4083 22.1533C69.7089 22.1533 67.5387 19.954 67.5387 17.2184C67.5387 14.4828 69.7089 12.2835 72.4083 12.2835C75.1077 12.2835 77.2779 14.4828 77.2779 17.2184C77.2779 19.9272 75.1077 22.1533 72.4083 22.1533ZM73.3875 6.54406C73.2552 6.51724 73.0699 6.51724 72.8318 6.51724C70.9263 6.51724 69.1531 7.05364 67.6446 7.99234V0.509579H61.7164V27.2759H67.38V26.3103C68.9679 27.3563 70.8204 27.9464 72.8318 27.9464C72.8582 27.9464 72.8582 27.9464 72.8847 27.9464C72.9641 27.9464 73.0435 27.9464 73.1229 27.9464V27.9195C78.6276 27.7586 83.0473 23.0115 83.0473 17.2184C83.0737 11.5057 78.7864 6.83908 73.3875 6.54406ZM94.9565 22.1533C92.2571 22.1533 90.087 19.954 90.087 17.2184C90.087 14.4828 92.2571 12.2835 94.9565 12.2835C97.656 12.2835 99.8261 14.4828 99.8261 17.2184C99.8261 19.9272 97.656 22.1533 94.9565 22.1533ZM94.9565 6.40996C89.0813 6.40996 84.3176 11.2375 84.3176 17.1916C84.3176 23.1456 89.0813 27.9732 94.9565 27.9732C100.832 27.9732 105.595 23.1456 105.595 17.1916C105.595 11.2375 100.832 6.40996 94.9565 6.40996ZM106.919 7.18774H112.45V9.33333H112.529C113.138 8.36782 114.382 6.51724 117.928 6.51724C119.807 6.51724 121.924 7.32184 122.983 8.26054C124.042 9.19923 125.259 10.7816 125.259 14.7241V27.2759H119.331V16.3065C119.331 14.8851 119.331 12.1494 116.234 12.1494C112.847 12.1494 112.847 15.1264 112.847 16.3333V27.249H106.919V7.18774ZM49.3573 7.18774H54.9149V9.33333H54.9943C55.4972 8.36782 56.5293 6.51724 59.9433 6.51724V12.5517C57.1909 12.6322 55.259 13.1954 55.259 16.2529V27.2759H49.3308V7.18774H49.3573Z" fill="#FFDE17"/>
</svg>
