<svg width="36" height="36" viewBox="0 0 36 36" fill="none" xmlns="http://www.w3.org/2000/svg">
<g clip-path="url(#clip0_501_48)">
<path d="M17.4852 31.0329H17.5325C17.6271 31.0329 17.6744 31.0802 17.769 31.0802C17.9109 31.0802 18.0055 31.2221 18.0528 31.3167C18.6678 34.3443 19.472 35.2431 20.0397 35.6216C20.5601 36 21.175 36.0946 21.79 35.9054C22.5469 35.6689 23.0673 35.1958 23.3512 34.5335C23.5404 34.0131 23.7769 33.1143 23.2092 31.2221C23.1619 31.1275 23.2092 31.0329 23.2565 30.9855C23.3038 30.8909 23.3511 30.8436 23.4457 30.8436C24.2973 30.6544 25.1015 30.3706 25.8584 29.9921C25.953 29.9448 26.0003 29.9448 26.0949 29.9921C26.8045 30.2286 27.4195 30.3233 27.9398 30.276C28.6021 30.1813 29.1698 29.7556 29.501 29.1406C29.7848 28.6675 29.8794 28.1472 29.7848 27.6268C29.7848 27.5322 29.7848 27.3903 29.8794 27.343C30.0213 27.201 30.2105 27.0118 30.3524 26.8699L30.3998 26.8226C30.4471 26.7753 30.4944 26.728 30.4944 26.6807C32.4339 24.5992 33.6639 22.0447 34.1369 19.2536C34.1369 19.159 34.1843 19.0171 34.1843 18.9225V18.8752C34.1843 18.7806 34.2316 18.6859 34.2316 18.5913V18.4967C34.2316 18.4021 34.2316 18.3075 34.2316 18.2602V18.1183C34.2316 18.0236 34.2316 17.9763 34.2316 17.8817V17.7398C34.2316 17.6452 34.2316 17.5506 34.2316 17.5033V17.3614C34.2316 17.2194 34.2316 17.1248 34.2316 16.9829C34.2316 16.841 34.2316 16.6991 34.2316 16.5099V16.4625C34.2316 16.4152 34.2316 16.4152 34.2316 16.3679V16.2733C34.2316 16.226 34.2316 16.1314 34.2316 16.0841V15.9895C34.2316 15.9422 34.2316 15.8949 34.2316 15.8476L34.1843 15.4691C34.1843 15.4218 34.1843 15.3745 34.1843 15.3272V15.138V15.0907C34.1843 15.0907 34.1843 15.0907 34.1843 15.0434C34.1843 14.9487 34.1842 14.9014 34.1369 14.8068V14.7595C34.0423 14.0972 33.8531 13.3876 33.6639 12.7727V12.6781C33.6166 12.5834 33.6166 12.4415 33.5693 12.3469L33.522 12.205C33.4747 12.1104 33.4746 12.0158 33.4273 11.9212C33.4273 11.8739 33.38 11.8265 33.38 11.7792L33.3328 11.6846C33.2854 11.59 33.2855 11.5427 33.2382 11.4481C33.1909 11.3535 33.1908 11.3062 33.1435 11.2116L33.0962 11.117C33.0962 11.0696 33.0489 11.0696 33.0489 11.0223C33.0016 10.8804 32.907 10.7385 32.8597 10.5966L32.8124 10.502C32.7651 10.4074 32.7178 10.3601 32.6705 10.2654C32.6231 10.1708 32.5759 10.0762 32.5286 9.9816C32.434 9.83968 32.4813 9.69776 32.5759 9.60315C34.1843 8.08935 34.9885 6.71747 35.1777 5.96057C35.3196 5.34559 35.1777 4.96714 35.0358 4.77792C34.8465 4.54139 34.5627 4.39947 34.1369 4.39947C33.3327 4.39947 31.7244 4.82523 29.7375 6.10249C29.5956 6.19711 29.4536 6.1498 29.359 6.05519C28.0818 4.96714 26.6626 4.11563 25.1015 3.50065C25.0542 3.50065 25.0069 3.45335 25.0069 3.45335C24.4392 2.93298 23.7769 2.60184 23.02 2.41261H22.9727C22.3104 2.27069 21.7427 1.93955 21.317 1.46649C21.317 1.46649 21.317 1.46649 21.2697 1.41919C20.4182 0.520368 19.2828 0 18.0528 0C16.8229 0 15.6403 0.520368 14.836 1.41919C14.836 1.41919 14.8361 1.41918 14.7888 1.46649C14.363 1.93955 13.7953 2.27069 13.133 2.41261H13.0857C11.903 2.69645 10.8623 3.45335 10.2473 4.49409C10.2 4.5887 10.1527 4.68331 10.1054 4.77792C10.0581 4.87253 9.96351 4.91984 9.8689 4.96715C9.77428 4.96715 9.67968 4.96714 9.58507 4.87253C8.97009 4.30486 8.40242 3.92641 7.92935 3.73719C7.36168 3.54796 7.03051 3.64257 6.84129 3.73719C6.55745 3.8791 6.36824 4.21025 6.32093 4.68331C6.22632 5.48751 6.51014 7.19053 7.55088 9.36662C7.59819 9.46123 7.59819 9.55585 7.55088 9.65046C7.07782 10.502 6.65206 11.3535 6.36823 12.2996C6.32092 12.4415 6.17898 12.5361 5.98975 12.5361C3.52983 12.1104 1.73222 12.2996 0.928015 12.6781C0.313035 12.9619 0.123799 13.293 0.0291861 13.5769C-0.0654262 13.908 0.076527 14.2392 0.360364 14.5703C0.833426 15.138 2.44182 16.3206 5.37481 17.1248C5.51673 17.1721 5.61134 17.2668 5.61134 17.4087C5.70595 19.6794 6.32094 21.9501 7.45629 23.9369C7.45629 23.9369 7.45629 23.9369 7.45629 23.9842C7.45629 23.9842 7.45628 24.0315 7.50359 24.0315C7.78742 24.5519 8.11856 25.025 8.497 25.5453C8.54431 25.5926 8.54429 25.6399 8.59159 25.6873C8.6389 25.7346 8.68623 25.8292 8.73354 25.8765C8.82815 25.9711 8.87545 26.0657 8.97007 26.1603C9.01737 26.2076 9.01735 26.2549 9.06466 26.3022C9.15927 26.3969 9.25393 26.4915 9.34854 26.5861L9.49042 26.728C9.53773 26.7753 9.58507 26.8699 9.58507 26.9645C9.58507 27.0591 9.53774 27.1537 9.44313 27.2011C7.17243 28.7622 6.03707 30.3233 5.70593 31.2221C5.4694 31.8371 5.6113 32.2155 5.75322 32.4047C5.84784 32.5467 6.03706 32.7359 6.46282 32.8305C6.60473 32.8778 6.74666 32.8778 6.88858 32.8778C7.92932 32.8778 9.44315 32.4047 11.0043 31.6005C11.0989 31.5532 11.2408 31.5532 11.3354 31.6478C11.43 31.7424 11.4773 31.8371 11.4773 31.979C11.3354 32.5467 11.3354 33.1143 11.43 33.5401C11.5719 34.2024 11.9977 34.77 12.66 35.0539C13.3223 35.3377 13.9845 35.3377 14.5995 35.0066C15.5929 34.4862 16.3972 33.3036 17.1541 31.2694C17.2014 31.0802 17.3433 31.0329 17.4852 31.0329Z" fill="#1F1F1F"/>
<path d="M22.8777 29.6093C22.7358 29.6093 22.6412 29.5146 22.5939 29.42C22.452 29.0416 22.2627 28.6631 22.0735 28.2374C22.0262 28.0954 22.0735 27.9535 22.1681 27.8589C22.2627 27.7643 22.4519 27.7643 22.5465 27.8589C23.0196 28.2374 23.4454 28.5685 23.8711 28.805C23.9658 28.8524 24.0131 28.9943 24.0131 29.1362C24.0131 29.2781 23.9185 29.3727 23.7766 29.42C23.4927 29.5146 23.2089 29.5619 22.925 29.6566C22.925 29.6092 22.925 29.6093 22.8777 29.6093Z" fill="#313B97"/>
<path d="M18.1946 24.2686C18.1946 24.2686 18.1473 24.2686 18.1946 24.2686C18.1473 24.2686 18.1473 24.2686 18.1946 24.2686C18.1 24.2686 18.1 24.2686 18.0527 24.2686H18.0054C17.9581 24.2686 17.9108 24.2686 17.9108 24.2686H17.8635C17.8162 24.2686 17.7689 24.2686 17.7689 24.2213C17.7216 24.2213 17.7216 24.2213 17.6743 24.174C17.627 24.174 17.6269 24.1267 17.5796 24.1267C17.5323 24.1267 17.5323 24.1267 17.485 24.0794C17.4377 24.0794 17.4378 24.0321 17.3904 24.0321C17.3431 24.0321 17.3431 23.9848 17.3431 23.9848L17.2958 23.9375C17.2958 23.9375 17.2485 23.9375 17.2485 23.8902L17.2012 23.8429C17.2012 23.8429 17.2012 23.8429 17.1539 23.7956C17.1066 23.7482 17.0593 23.7009 17.012 23.6536C17.012 23.6536 17.012 23.6536 17.012 23.6063C16.9174 23.5117 16.87 23.3698 16.8227 23.2752C16.8227 23.2279 16.7754 23.1806 16.7754 23.1806C16.7754 23.1333 16.7755 23.086 16.7281 23.0387C16.7281 22.9913 16.7281 22.944 16.7281 22.944C16.7281 22.8967 16.7281 22.8494 16.7281 22.7548C16.7281 22.7075 16.7281 22.7075 16.7281 22.6602C16.7281 22.6129 16.7281 22.6129 16.7281 22.5656C16.7755 22.1871 16.9647 21.856 17.2485 21.6195L17.2958 21.5722C17.4377 21.4776 17.5796 21.3829 17.7689 21.3356C17.9108 21.2883 18.1 21.2883 18.2419 21.2883C18.2892 21.2883 18.2892 21.2883 18.2892 21.2883H18.3366H18.3839C18.715 21.3356 19.0462 21.5249 19.2827 21.7614C19.4246 21.9506 19.5192 22.1398 19.6138 22.3291C19.6611 22.5183 19.7084 22.7548 19.6611 22.944C19.6611 22.944 19.6611 22.944 19.6611 22.9914C19.6138 23.3225 19.4246 23.6536 19.1408 23.8902L19.0935 23.9375C19.0935 23.9375 19.0935 23.9375 19.0462 23.9375C18.9516 24.0321 18.8096 24.0794 18.715 24.1267C18.6677 24.1267 18.6204 24.174 18.5731 24.174C18.5258 24.174 18.4785 24.2213 18.3839 24.2213H18.3366C18.3366 24.2213 18.3365 24.2213 18.2892 24.2213C18.2892 24.2686 18.2892 24.2686 18.1946 24.2686C18.1946 24.2686 18.2419 24.2686 18.1946 24.2686Z" fill="#EC2027"/>
<path d="M8.59138 22.8487C8.44946 22.8487 8.35486 22.8014 8.30756 22.6595C7.92911 21.9026 7.64526 21.0984 7.40873 20.2942C7.36142 20.1523 7.40875 20.0104 7.55067 19.963C7.64528 19.8684 7.83453 19.8684 7.92914 19.963C8.78065 20.5307 9.96326 21.1457 11.4298 21.7134C11.5717 21.7607 11.6663 21.9026 11.619 22.0445C11.619 22.1865 11.4771 22.3284 11.3352 22.3284C10.3417 22.4703 9.44293 22.6595 8.68603 22.8487C8.63872 22.8487 8.63869 22.8487 8.59138 22.8487Z" fill="#313B97"/>
<path d="M17.2485 20.0605C17.1539 20.0605 17.012 20.0132 16.9646 19.8713C16.2077 18.4521 15.1197 16.3706 14.552 14.4311C14.3628 13.8161 14.2682 13.2011 14.2209 12.6807C14.1736 12.0657 14.2209 11.5927 14.3155 11.1669C14.3155 11.1196 14.3155 11.1196 14.3628 11.0723C14.3628 11.025 14.3628 11.025 14.4101 10.9777V10.9304C14.5993 10.5993 14.7885 10.4573 14.9778 10.41C15.0251 10.41 15.0724 10.41 15.0724 10.41C15.0724 10.41 15.0724 10.41 15.1197 10.41C15.1197 10.41 15.1197 10.41 15.167 10.41C15.2143 10.41 15.2143 10.41 15.2616 10.41H15.3089C15.3562 10.41 15.3562 10.41 15.4035 10.4573H15.4508C15.4508 10.4573 15.4982 10.4573 15.4982 10.5046C15.6401 10.5993 15.7347 10.6939 15.8766 10.8831C15.9239 10.9304 15.9239 10.9777 15.9712 11.025C16.0185 11.0723 16.0185 11.1196 16.0658 11.1669C16.1131 11.2142 16.1131 11.3089 16.1604 11.3562C16.4442 11.9238 16.7281 12.728 16.9646 13.7688C17.2012 14.7622 17.3431 15.9922 17.485 17.4113C17.5323 18.1209 17.5796 18.8778 17.6269 19.682C17.6269 19.824 17.5323 19.9659 17.3904 20.0132H17.3431C17.3431 20.0605 17.2958 20.0605 17.2485 20.0605ZM19.7084 20.3443C19.6611 20.3443 19.6138 20.3443 19.5665 20.297H19.5192C19.3773 20.2497 19.3299 20.0605 19.3773 19.9186C19.6611 18.9725 19.8976 18.1209 20.1814 17.3167C21.7425 12.8226 23.0672 11.8765 23.5402 11.64C23.5402 11.64 23.5402 11.64 23.5875 11.64C23.6348 11.64 23.6821 11.5927 23.7294 11.5927C23.7767 11.5927 23.824 11.5927 23.8713 11.5927C23.8713 11.5927 23.8713 11.5927 23.9186 11.5927C23.9659 11.5927 24.0133 11.5927 24.0606 11.64C24.0606 11.64 24.0606 11.64 24.1079 11.64C24.1552 11.64 24.1552 11.6873 24.2025 11.6873C24.2971 11.7346 24.3444 11.7819 24.3917 11.8292C24.4863 11.9238 24.5336 12.0184 24.5336 12.1131C24.5336 12.1604 24.5809 12.2077 24.5809 12.255V12.3023C24.5809 12.3969 24.5809 12.5388 24.5809 12.6807C24.5809 12.728 24.5809 12.7753 24.5809 12.87V12.9173C24.5809 12.9646 24.5809 13.0119 24.5336 13.0592V13.1065C24.5336 13.2011 24.4863 13.2484 24.4863 13.343C24.4863 13.3903 24.439 13.4376 24.439 13.4849C24.439 13.5322 24.439 13.5322 24.3917 13.5795V13.6268C24.2025 14.1472 23.966 14.7149 23.5875 15.3772L23.5402 15.4245C23.4929 15.4718 23.4929 15.5191 23.4456 15.5664C22.4521 17.2221 20.9856 19.0198 19.8976 20.2024C19.8976 20.297 19.803 20.3443 19.7084 20.3443ZM15.3562 21.5743C15.3089 21.5743 15.3089 21.5743 15.2616 21.5743C10.3891 20.2024 8.59146 19.0198 7.92918 18.2629C7.83457 18.1683 7.83452 18.0263 7.88183 17.8844C7.92913 17.7425 8.07108 17.6952 8.213 17.6952C9.34835 17.8371 10.5783 17.9317 11.8083 17.979C11.8556 17.979 11.9502 17.979 11.9975 18.0263C13.0382 18.7359 14.2682 19.7293 15.5928 20.912C15.6874 21.0066 15.7347 21.1958 15.6401 21.2905L15.5928 21.3378C15.5928 21.527 15.4981 21.5743 15.3562 21.5743ZM21.2222 22.2366C21.0803 22.2366 20.9383 22.142 20.891 22V21.9527C20.8437 21.8108 20.891 21.6689 21.033 21.5743C23.5875 20.1078 25.8582 19.1617 27.5612 18.7359C27.7032 18.6886 27.7977 18.6886 27.9397 18.6413C27.9397 18.6413 27.9396 18.6413 27.987 18.6413C28.3654 18.594 28.6966 18.5467 29.0277 18.5467C29.075 18.5467 29.1223 18.5467 29.1696 18.5467C29.2169 18.5467 29.2169 18.5467 29.2643 18.5467H29.3116C29.4535 18.5467 29.5954 18.594 29.69 18.594C29.7373 18.594 29.7846 18.594 29.8319 18.6413C30.2577 18.7832 30.3996 19.0198 30.4469 19.209C30.4942 19.3509 30.4942 19.6347 30.305 19.9186C30.0684 20.2024 29.4534 20.8174 27.7504 21.3378C27.7031 21.3378 27.6558 21.3851 27.6085 21.3851C25.9055 21.8108 23.7767 22.0947 21.2222 22.2366ZM10.8621 26.0684C10.7675 26.0684 10.6729 26.0211 10.6256 25.9738C10.5783 25.9265 10.4837 25.8319 10.4364 25.7845L10.3891 25.7372C10.3418 25.6899 10.3418 25.6899 10.2945 25.6426C10.058 25.3588 9.82142 25.0749 9.58489 24.7911C9.53759 24.6965 9.44296 24.6019 9.39566 24.5073V24.46C9.34835 24.3654 9.30106 24.2707 9.34836 24.1761C9.39567 24.0815 9.49028 23.9869 9.58489 23.9869C11.0041 23.6558 12.849 23.4192 15.1197 23.3246C15.2616 23.3246 15.4035 23.4192 15.4508 23.5611V23.6085C15.4981 23.7504 15.4508 23.8923 15.3089 23.9869C13.6532 24.933 12.234 25.6426 11.0041 26.1157C10.9568 26.0684 10.9094 26.0684 10.8621 26.0684ZM27.5612 28.9541C27.2301 28.9541 26.8043 28.8594 26.2839 28.6229C26.2839 28.6229 26.284 28.6229 26.2366 28.6229C26.0474 28.5283 25.9055 28.481 25.7163 28.3391C25.6217 28.2918 25.5271 28.2445 25.4798 28.1972C25.4325 28.1499 25.3851 28.1499 25.3378 28.1025L25.2432 28.0552C24.0133 27.2983 22.4995 26.1157 20.7018 24.5073C20.6072 24.4127 20.5599 24.2234 20.6545 24.1288C20.7491 23.9869 20.891 23.9396 21.033 23.9869C26.6624 25.548 28.0816 26.9199 28.46 27.5822C28.46 27.6295 28.5074 27.6295 28.5074 27.6768C28.6493 27.9606 28.6019 28.2445 28.46 28.5283C28.3181 28.8121 28.0816 28.9541 27.7978 29.0014C27.7032 28.9541 27.6086 28.9541 27.5612 28.9541ZM13.6059 33.9212C13.464 33.9212 13.3221 33.8739 13.2274 33.8266C12.9436 33.6847 12.8017 33.4954 12.7071 33.2116C12.6125 32.7385 12.6598 31.7451 13.7478 29.8529V29.8056C13.8424 29.6163 13.937 29.4744 14.0316 29.2852L14.1263 29.1433C14.5993 28.3864 15.167 27.5822 15.8293 26.6834L15.9239 26.5414C15.9712 26.4468 16.0185 26.3995 16.0658 26.3049L16.3496 25.9265C16.4443 25.7845 16.5389 25.6899 16.6335 25.548C16.7281 25.4534 16.9173 25.3588 17.0119 25.4534C17.1539 25.5007 17.2485 25.6426 17.2012 25.7845C17.1066 26.2103 17.0593 26.5887 16.9646 26.9672C16.9173 27.1564 16.87 27.3456 16.8227 27.5349C16.7754 27.7241 16.7281 27.9133 16.6808 28.0552C16.4916 28.7648 16.3023 29.4271 16.1131 30.0421C15.2616 32.6912 14.4574 33.5901 13.8897 33.8266C13.8897 33.9212 13.7478 33.9212 13.6059 33.9212ZM21.1749 34.7254C21.033 34.7254 20.891 34.6781 20.7964 34.5835C20.3234 34.2524 19.7084 33.3062 19.2353 30.4205C19.2353 30.4205 19.2353 30.4205 19.2353 30.3732C19.1407 29.9002 19.0934 29.4271 18.9988 28.8594V28.8121C18.9988 28.6702 18.9515 28.481 18.9515 28.3391V28.2445C18.9515 28.1025 18.9042 27.9606 18.9042 27.7714V27.6295C18.9042 27.4876 18.8569 27.2983 18.8569 27.1564V27.0145C18.8569 26.8726 18.8096 26.6834 18.8096 26.4941V26.3522C18.8096 26.163 18.7622 25.9265 18.7622 25.6899C18.7622 25.548 18.8569 25.4061 18.9988 25.3588C19.1407 25.3115 19.2826 25.3588 19.3773 25.5007L19.4245 25.548C19.5192 25.7372 19.6138 25.9265 19.7084 26.1157L19.8503 26.3522C19.8976 26.4941 19.9922 26.5887 20.0395 26.7307C20.0869 26.8253 20.1342 26.9672 20.2288 27.0618C20.2761 27.2037 20.3707 27.2983 20.418 27.4403C20.4653 27.5349 20.5126 27.6768 20.5599 27.7714L20.6545 27.9133C22.0737 30.8936 22.5941 32.9278 22.2156 33.8739C22.121 34.0631 21.9791 34.347 21.506 34.4889C21.3168 34.6781 21.2695 34.7254 21.1749 34.7254Z" fill="#E69BC3"/>
<path d="M31.8188 18.644C31.6769 18.644 31.5823 18.5967 31.535 18.4548L31.4877 18.4075L31.4404 18.3602L31.3931 18.3129C31.3931 18.2656 31.3458 18.2656 31.3458 18.2183V18.1709L31.2984 18.1236C31.2511 18.0763 31.2511 18.0763 31.2038 18.029L31.1565 17.9817C31.1092 17.9344 31.1092 17.9344 31.0619 17.8871C31.0146 17.8871 31.0146 17.8398 30.9673 17.8398C30.92 17.8398 30.92 17.7925 30.8727 17.7925C30.8254 17.7925 30.8254 17.7452 30.7781 17.7452C30.7308 17.7452 30.7308 17.6979 30.6835 17.6979H30.6362C30.6362 17.6979 30.6361 17.6979 30.5888 17.6979C30.5888 17.6979 30.5416 17.6979 30.4942 17.6506C30.4942 17.6506 30.4943 17.6506 30.447 17.6506H30.3997H30.3523C30.3523 17.6506 30.3523 17.6506 30.305 17.6506L30.2104 17.6033C30.1631 17.6033 30.1158 17.556 30.0685 17.556C30.0212 17.556 29.9739 17.5087 29.9266 17.5087C29.832 17.5087 29.7373 17.4614 29.6427 17.4614C29.5008 17.4614 29.4062 17.3194 29.3589 17.1775C29.3589 17.0356 29.4535 16.8937 29.5481 16.8464C30.2104 16.6098 30.92 16.7518 31.4404 17.2248C31.8188 17.556 32.0081 17.9817 32.0554 18.4548C32.0554 18.5967 31.9608 18.7386 31.8188 18.7859C31.9135 18.644 31.8661 18.644 31.8188 18.644Z" fill="#EC2027"/>
<path d="M9.49031 13.435C9.44301 13.435 9.39572 13.435 9.39572 13.435C8.92266 13.2458 8.40231 13.1039 7.92924 12.9619C7.83463 12.9146 7.78731 12.8673 7.74001 12.82C7.6927 12.7254 7.6927 12.6308 7.74001 12.5835C7.88193 12.205 8.02385 11.8266 8.21307 11.4481C8.26038 11.3535 8.35498 11.2589 8.4969 11.2589C8.63881 11.2589 8.73342 11.3062 8.78072 11.4008C9.11186 11.9212 9.44304 12.4416 9.82149 12.9619C9.9161 13.0565 9.9161 13.2458 9.82149 13.3404C9.67957 13.3877 9.58493 13.435 9.49031 13.435Z" fill="#313B97"/>
<path d="M18.3835 13.013C18.2416 13.013 18.0996 12.9184 18.0523 12.7765C18.0523 12.6819 18.005 12.6345 18.005 12.5399C17.9577 12.4453 18.005 12.3507 18.0523 12.2561C18.0996 12.1615 18.1942 12.1142 18.2888 12.1142C19.1403 12.0669 19.8973 11.6884 20.465 11.0734C21.6476 9.79617 21.5057 7.76201 20.2284 6.62666C19.6134 6.05899 18.8092 5.77514 17.9577 5.82245C17.1062 5.86976 16.3493 6.24821 15.7816 6.86319C15.3086 7.43087 15.0247 8.14046 14.9774 8.85005C14.9774 8.99197 14.8828 9.13388 14.7409 9.13388C14.6936 9.13388 14.6463 9.13389 14.6463 9.18119C14.599 9.18119 14.599 9.1812 14.5517 9.2285C14.4571 9.27581 14.3624 9.2285 14.2678 9.18119C14.1732 9.13389 14.1259 9.03927 14.1259 8.89735C14.1259 7.90392 14.5043 6.9578 15.1666 6.24821C15.8762 5.44401 16.8697 4.97094 17.9577 4.92364C19.0457 4.87633 20.0865 5.25478 20.8907 5.96437C22.5464 7.43086 22.6883 10.0327 21.1745 11.6884C20.4176 12.4453 19.4715 12.9184 18.3835 13.013ZM26.7566 17.6017C26.662 17.6017 26.5674 17.5544 26.5201 17.5071C26.4255 17.4125 26.4255 17.3179 26.4255 17.1759C26.6147 16.6556 26.8986 16.1352 27.277 15.7094C28.7435 14.101 31.1561 13.9118 32.8592 15.2837C32.9065 15.331 32.9537 15.4256 32.9537 15.5202V15.5675C32.9537 15.6148 32.9537 15.7094 32.9537 15.7568V15.8514C32.9537 15.9933 32.9065 16.0879 32.7646 16.1825C32.6226 16.2771 32.4807 16.2298 32.3861 16.1352L32.3388 16.0879C31.0615 14.9052 29.0274 15.0472 27.892 16.3244C27.6082 16.6083 27.4189 16.9394 27.277 17.3179C27.2297 17.4125 27.1351 17.5071 27.0405 17.5071C26.9459 17.5071 26.8513 17.5544 26.7566 17.5544C26.8513 17.6017 26.804 17.6017 26.7566 17.6017ZM30.3046 22.4269C30.21 22.4269 30.1154 22.4269 30.0208 22.4269C29.8789 22.4269 29.737 22.3323 29.737 22.1904C29.6897 22.0485 29.7843 21.9066 29.9262 21.8592C30.0681 21.7646 30.21 21.7173 30.3046 21.6227C30.3519 21.5754 30.3992 21.5754 30.4466 21.5754C30.9196 21.5754 31.3453 21.4335 31.7238 21.2443C31.8657 21.197 32.0077 21.197 32.1023 21.2916C32.1969 21.3862 32.2442 21.5281 32.1969 21.67L32.1496 21.7173C32.1496 21.7646 32.1023 21.812 32.1023 21.812C32.1023 21.8593 32.055 21.8592 32.055 21.9066L32.0076 21.9539C31.9603 22.0485 31.9131 22.0958 31.8184 22.1431C31.3927 22.3323 30.825 22.4269 30.3046 22.4269Z" fill="#FFDE17"/>
<path d="M26.1892 12.2594C26.1419 12.2594 26.0946 12.2594 26.0473 12.2121C25.9527 12.1648 25.9054 12.0702 25.8581 11.9756C25.8581 11.9756 25.8581 11.9756 25.8581 11.9283V11.8337C25.8581 11.7864 25.8581 11.7864 25.8581 11.7391V11.6918C25.8581 11.6918 25.8581 11.6918 25.8581 11.6445C25.8581 11.5972 25.8581 11.5972 25.8108 11.5499C25.7635 11.4552 25.8107 11.3133 25.8581 11.2187L25.9054 11.1714C26 11.0768 26.0946 10.9349 26.2365 10.8403L26.3311 10.6983C26.4257 10.6037 26.5204 10.5091 26.615 10.4145C26.7569 10.2726 26.8515 10.1307 26.9934 10.0361L27.0407 9.98875C30.1629 6.91385 32.6702 5.96773 33.3797 5.7785C33.5217 5.73119 33.6636 5.7785 33.7109 5.87311C33.8055 5.96772 33.8055 6.10964 33.7582 6.25156C33.4744 6.72462 32.8121 7.76536 31.2983 9.04262C31.2983 9.04262 31.251 9.04263 31.251 9.08993C31.0617 9.23185 30.8726 9.42107 30.636 9.6103C30.4468 9.75222 30.2575 9.89414 30.0683 10.0361L30.021 10.0834C29.8318 10.2253 29.6425 10.3672 29.406 10.5091L29.3587 10.5564C28.7437 10.9822 28.0342 11.4079 27.3246 11.7864L27.2299 11.8337C26.9934 11.9283 26.8042 12.0702 26.5676 12.1648L26.3785 12.2594C26.2839 12.2594 26.2365 12.2594 26.1892 12.2594ZM12.8016 14.4355C12.7069 14.4355 12.6123 14.3882 12.565 14.3409C11.6189 13.3002 10.7674 12.2121 10.0578 11.1241L10.0105 11.0295C9.96317 10.9349 9.9159 10.8403 9.8686 10.793L9.77395 10.651C9.72664 10.6037 9.72667 10.5564 9.67936 10.5091C9.63205 10.4618 9.58477 10.3672 9.58477 10.3199L9.53742 10.2726C8.26015 8.0492 7.83443 6.44079 7.73982 5.68389C7.73982 5.54197 7.78709 5.40005 7.8817 5.35274C7.97632 5.30543 8.11826 5.30543 8.26018 5.35274C8.73324 5.73119 10.0578 6.86654 11.3824 9.37377C11.477 9.51568 11.5243 9.65761 11.6189 9.79953V9.84683C11.6662 9.89413 11.6662 9.94144 11.7136 9.98875L11.8081 10.1307C11.8554 10.2253 11.9028 10.2726 11.9501 10.3672L11.9974 10.5091C12.0447 10.6037 12.092 10.7456 12.1393 10.8403L12.1866 10.8876C12.2339 11.0295 12.3285 11.1714 12.3758 11.3133L12.4231 11.4079C12.4704 11.5025 12.5177 11.6445 12.565 11.7864L12.6123 11.9283C12.6596 12.0702 12.707 12.2121 12.7543 12.3541V12.4014C12.8016 12.5433 12.8489 12.6852 12.8962 12.8271C12.8962 12.8744 12.8962 12.8744 12.8962 12.9217C12.9435 13.3002 12.9908 13.6786 13.0854 14.0571C13.1327 14.199 13.0381 14.3409 12.8962 14.4355C12.9435 14.4355 12.8489 14.4355 12.8016 14.4355ZM12.1393 16.7062C10.1051 16.7062 8.16554 16.4697 6.46252 16.0439C4.0499 15.4763 2.67807 14.6721 2.01578 14.2463C1.92117 14.1517 1.87384 14.0571 1.87384 13.9152C1.92115 13.7732 2.01575 13.6786 2.15767 13.6786C3.71877 13.4421 6.74635 13.7259 10.4835 15.287H10.5309C10.6728 15.3343 10.8147 15.3817 10.9566 15.4763C11.1458 15.5709 11.2878 15.6182 11.477 15.7128L11.6662 15.8074C11.9027 15.902 12.092 15.9966 12.3285 16.1386C12.4704 16.1859 12.5177 16.3751 12.5177 16.517C12.4231 16.6116 12.2812 16.7062 12.1393 16.7062ZM7.55058 31.4658C7.45597 31.4658 7.36137 31.4184 7.26676 31.3238C7.17214 31.2292 7.17214 31.0873 7.26676 30.9454C7.5979 30.425 8.63863 29.1004 11.0985 27.634H11.1458C11.95 27.1609 12.8016 26.6878 13.7477 26.2621C13.8896 26.2148 14.0315 26.2148 14.1262 26.3567C14.2208 26.4513 14.2208 26.6405 14.1262 26.7351C13.5585 27.5393 13.0381 28.2962 12.6597 29.0058C12.6124 29.0531 12.6123 29.1005 12.565 29.1005C10.1524 30.7562 8.40209 31.3238 7.55058 31.4658C7.55058 31.4658 7.59789 31.4658 7.55058 31.4658Z" fill="#00A650"/>
<path d="M18.0998 10.8356C17.816 10.8356 17.5794 10.7883 17.2956 10.6463C17.2483 10.599 17.201 10.5517 17.1537 10.5044C17.1537 10.5044 17.1537 10.4571 17.1064 10.4571C17.059 10.4098 17.0118 10.3152 17.0118 10.2679L16.9645 10.2206C16.9172 10.1733 16.8698 10.126 16.8225 10.0314L16.7752 9.98405C16.7752 9.98405 16.7752 9.93675 16.7279 9.93675L16.6806 9.88944C16.6806 9.84214 16.6333 9.84213 16.6333 9.84213L16.586 9.79483C16.5387 9.74752 16.5387 9.74753 16.4914 9.70022C16.4441 9.65291 16.3968 9.6056 16.3495 9.6056C16.3022 9.5583 16.2549 9.51099 16.2549 9.41638C16.113 8.8014 16.2549 8.18642 16.6806 7.71335C17.0118 7.33491 17.4848 7.14569 17.9579 7.09838C18.431 7.05107 18.9513 7.2403 19.2825 7.57144C20.0394 8.23373 20.0867 9.41638 19.4244 10.1733C19.1405 10.599 18.6202 10.8356 18.0998 10.8356Z" fill="#EC2027"/>
<path d="M24.5715 10.4578C24.5242 10.4578 24.4769 10.4578 24.4769 10.4578C24.4296 10.4578 24.4296 10.4578 24.3823 10.4578L24.2876 10.4105C24.2403 10.4105 24.1457 10.3632 24.0984 10.3632H24.0511H24.0038C23.9565 10.3632 23.9092 10.3632 23.8619 10.3632C23.8146 10.3632 23.8146 10.3632 23.7673 10.3632C23.72 10.3632 23.6727 10.3632 23.6253 10.3632H23.5781C23.4834 10.3632 23.3888 10.3159 23.2942 10.2686C23.2469 10.174 23.1996 10.0794 23.1996 9.98479C23.2469 9.60634 23.2942 9.18058 23.2469 8.80213C23.1523 7.38295 22.5373 6.05837 21.4966 5.11225C19.3205 3.12539 15.9145 3.31461 13.9749 5.4907C13.2653 6.2476 12.8395 7.19371 12.6976 8.23445C12.6976 8.37637 12.5557 8.47098 12.4138 8.51829C12.2719 8.5656 12.13 8.47098 12.0827 8.37637C12.0354 8.28176 11.988 8.23445 11.9407 8.13984C11.6096 7.57217 11.2785 7.09911 10.9473 6.62604C10.9 6.57874 10.8527 6.48412 10.9 6.38951C10.9473 5.96376 11.0892 5.58531 11.2784 5.25417C11.7042 4.49727 12.4611 3.9769 13.3126 3.78767H13.3599C14.2114 3.59845 14.9683 3.17269 15.5833 2.51041L15.6306 2.4631C16.1983 1.80081 17.0498 1.42236 17.9486 1.42236C18.8474 1.42236 19.6516 1.80081 20.2666 2.4631L20.3139 2.51041C20.9289 3.17269 21.6858 3.59845 22.5373 3.78767H22.5846C23.1996 3.92959 23.7673 4.26073 24.2404 4.7338C24.2877 4.7811 24.3823 4.87571 24.4296 4.97033L24.4769 5.01764C24.5242 5.11225 24.6188 5.20686 24.6661 5.25417C25.0919 6.01107 25.1865 6.95718 24.9499 7.76139V7.8087C24.9026 7.90331 24.9027 7.99793 24.8554 8.09254V8.13984V8.18715C24.8554 8.23446 24.808 8.32906 24.808 8.37637C24.808 8.42368 24.808 8.42368 24.808 8.47098V8.51829C24.808 8.5656 24.808 8.66021 24.808 8.70751C24.808 8.75482 24.808 8.80213 24.808 8.84943C24.808 8.89674 24.808 8.99136 24.808 9.03866C24.808 9.08597 24.808 9.13327 24.808 9.18057C24.808 9.22788 24.808 9.3225 24.808 9.3698V9.41711C24.808 9.46441 24.808 9.46442 24.808 9.51172C24.808 9.60634 24.808 9.65364 24.8554 9.74825V9.79556V9.84286C24.8554 9.93748 24.9026 10.0321 24.9026 10.1267C24.95 10.2213 24.9026 10.3632 24.808 10.4578C24.7134 10.4105 24.6188 10.4578 24.5715 10.4578ZM18.8474 16.2292C18.6582 16.2292 18.5636 16.0873 18.5163 15.9454C18.469 15.5196 18.4217 15.0939 18.3271 14.7154C18.3271 14.6208 18.3271 14.5262 18.3744 14.4789C18.4217 14.3843 18.5163 14.3843 18.6109 14.337C18.8474 14.2896 19.084 14.2423 19.3205 14.195C19.4624 14.1477 19.5571 14.195 19.6517 14.2896C19.7463 14.3843 19.7463 14.5262 19.699 14.6208C19.5097 15.0465 19.3205 15.5196 19.1313 15.9927C19.1313 16.1346 18.9894 16.2292 18.8474 16.2292ZM23.7673 18.6891C23.72 18.6891 23.6254 18.6891 23.5781 18.6418C23.4834 18.5945 23.4362 18.4999 23.4362 18.358C23.4362 18.2634 23.4362 18.1688 23.4362 18.0741C23.4362 17.9795 23.4362 17.9322 23.4835 17.8376C24.4769 16.4184 25.1865 15.1885 25.5176 14.1004C25.5649 14.0058 25.6122 13.9585 25.7068 13.9112C27.6937 13.0124 29.444 12.019 30.9105 10.9309C31.0051 10.8836 31.0997 10.8363 31.1943 10.8836C31.2889 10.9309 31.3363 10.9309 31.4309 10.9782C31.4782 11.0255 31.5728 11.0728 31.5728 11.1201L31.6674 11.3094C31.7147 11.404 31.762 11.4986 31.8093 11.5932V11.6405C31.9986 12.0663 32.1405 12.492 32.3297 12.9651C32.377 13.0597 32.3297 13.2016 32.2351 13.2962C32.1405 13.3908 31.9985 13.3908 31.9039 13.3908C29.8698 12.6812 27.6464 13.2489 26.1799 14.8573C25.3757 15.7561 24.9026 16.8442 24.808 18.0268C24.808 18.1688 24.7134 18.2634 24.6188 18.3107C24.3823 18.4053 24.0984 18.4999 23.8619 18.6418C23.8619 18.6891 23.8146 18.6891 23.7673 18.6891ZM29.1602 25.9743C29.1129 25.9743 29.0656 25.9743 29.0183 25.9743C28.5925 25.785 28.1667 25.5012 27.8829 25.1701L27.8356 25.1228C27.2206 24.4605 26.4638 24.0347 25.6122 23.8455H25.5649C25.5176 23.8455 25.5176 23.8455 25.4703 23.7982C25.3284 23.7509 25.2338 23.609 25.2338 23.467C25.2338 23.3251 25.3757 23.1832 25.5176 23.1832C26.038 23.0886 26.5584 22.994 27.0314 22.8994C27.126 22.8994 27.2207 22.8994 27.268 22.9467C28.1668 23.5144 29.1602 23.8455 30.2482 23.8455C30.2955 23.8455 30.3428 23.8455 30.3902 23.8455H30.4375C30.5794 23.8455 30.674 23.8928 30.7213 24.0347C30.7686 24.1766 30.7686 24.2712 30.7213 24.3659C30.5321 24.6497 30.3428 24.9335 30.1536 25.1701L30.059 25.2647C29.9644 25.3593 29.8698 25.5012 29.7752 25.5958C29.7278 25.6431 29.6806 25.7377 29.586 25.785C29.5387 25.8324 29.4913 25.8797 29.444 25.927C29.3494 25.927 29.2548 25.9743 29.1602 25.9743Z" fill="#18ACE3"/>
<path d="M26.511 8.51248C26.4637 8.51248 26.3691 8.51247 26.3218 8.46517C26.1799 8.37055 26.1325 8.22864 26.1798 8.08672C26.1798 8.03942 26.1798 8.03941 26.1798 8.03941C26.1798 7.9448 26.2271 7.8975 26.2271 7.80288V7.75557C26.2271 7.70827 26.2745 7.66097 26.2745 7.61366V7.56635V7.51904C26.2745 7.47174 26.2745 7.42443 26.2745 7.42443V7.37713V7.28251C26.2745 7.23521 26.2745 7.23521 26.2745 7.1879V7.1406V7.04598C26.2745 6.99868 26.2745 6.99868 26.2745 6.95137V6.90407V6.80945C26.2745 6.76214 26.2745 6.76215 26.2745 6.71484V6.66754V6.62023C26.2745 6.57292 26.2745 6.57292 26.2745 6.52562V6.47831V6.3837C26.2745 6.33639 26.2745 6.33639 26.2745 6.28909C26.2745 6.14717 26.3218 6.05256 26.4164 5.95794C26.511 5.86333 26.6529 5.91064 26.7476 5.95794C27.1733 6.24178 27.5991 6.52562 27.9775 6.85676C28.0721 6.90407 28.1194 6.99868 28.1194 7.09329C28.1194 7.1879 28.0721 7.28252 27.9775 7.32982C27.741 7.51905 27.5044 7.70827 27.2679 7.9448C27.126 8.03942 27.0314 8.13403 26.8894 8.27594L26.7948 8.37056C26.7475 8.41786 26.7002 8.46517 26.6056 8.51248C26.6529 8.46517 26.6056 8.51248 26.511 8.51248Z" fill="#313B97"/>
</g>
<defs>
<clipPath id="clip0_501_48">
<rect width="36" height="36" fill="white"/>
</clipPath>
</defs>
</svg>
