<svg width="0" height="0" class="hidden"><symbol fill="none" xmlns="http://www.w3.org/2000/svg" viewBox="0 0 16 16" id="alert-circle"><path d="M8 14C11.3137 14 14 11.3137 14 8C14 4.68629 11.3137 2 8 2C4.68629 2 2 4.68629 2 8C2 11.3137 4.68629 14 8 14Z" stroke="#898A8A" stroke-width="1.2" stroke-linecap="round" stroke-linejoin="round"></path><path d="M6.22241 6.22201C6.22241 5.86838 6.3863 5.52924 6.67802 5.2792C6.96975 5.02915 7.36541 4.88867 7.77797 4.88867H8.22241C8.63497 4.88867 9.03063 5.02915 9.32236 5.2792C9.61408 5.52924 9.77797 5.86838 9.77797 6.22201C9.79433 6.51056 9.71649 6.79663 9.55617 7.03711C9.39585 7.27759 9.16173 7.45946 8.88908 7.55534C8.61642 7.68317 8.3823 7.92567 8.22198 8.24632C8.06166 8.56696 7.98382 8.94837 8.00019 9.33312M8.00019 11.1109V11.1153" stroke="#898A8A" stroke-width="1.2" stroke-linecap="round" stroke-linejoin="round"></path></symbol>

<symbol fill="none" xmlns="http://www.w3.org/2000/svg" viewBox="0 0 24 24" id="arrow-down"><path d="M6 9L12 15L18 9" stroke="#1F1F1F" stroke-width="2" stroke-linecap="round" stroke-linejoin="round"></path></symbol>

<symbol fill="none" xmlns="http://www.w3.org/2000/svg" viewBox="0 0 24 24" id="arrow-down-white"><path d="M6 9L12 15L18 9" stroke="#ffffff" stroke-width="2" stroke-linecap="round" stroke-linejoin="round"></path></symbol>

<symbol fill="none" xmlns="http://www.w3.org/2000/svg" viewBox="0 0 24 24" id="arrow-down-transparent"><path d="M6 9L12 15L18 9"  stroke-width="2" stroke-linecap="round" stroke-linejoin="round"></path></symbol>


<symbol fill="none" xmlns="http://www.w3.org/2000/svg" viewBox="0 0 24 24" id="arrow-left"><path d="M5 12H19M5 12L11 18M5 12L11 6" stroke="#1F1F1F" stroke-width="1.8" stroke-linecap="round" stroke-linejoin="round"></path></symbol>

<symbol fill="none" xmlns="http://www.w3.org/2000/svg" viewBox="0 0 24 24" id="arrow-up"><path d="M6 15L12 9L18 15" stroke="#1F1F1F" stroke-width="2" stroke-linecap="round" stroke-linejoin="round"></path></symbol><symbol fill="none" xmlns="http://www.w3.org/2000/svg" viewBox="0 0 24 24" id="attention"><path d="M12 19V19.01M12 15V5" stroke="#1F1F1F" stroke-width="2" stroke-linecap="round" stroke-linejoin="round"></path></symbol><symbol fill="none" xmlns="http://www.w3.org/2000/svg" viewBox="0 0 24 24" id="bill"><path d="M14 8H11.5C11.1022 8 10.7206 8.15804 10.4393 8.43934C10.158 8.72064 10 9.10218 10 9.5C10 9.89782 10.158 10.2794 10.4393 10.5607C10.7206 10.842 11.1022 11 11.5 11H12.5C12.8978 11 13.2794 11.158 13.5607 11.4393C13.842 11.7206 14 12.1022 14 12.5C14 12.8978 13.842 13.2794 13.5607 13.5607C13.2794 13.842 12.8978 14 12.5 14H10M12 14V15.5M12 6.5V8M5 21V5C5 4.46957 5.21071 3.96086 5.58579 3.58579C5.96086 3.21071 6.46957 3 7 3H17C17.5304 3 18.0391 3.21071 18.4142 3.58579C18.7893 3.96086 19 4.46957 19 5V21L16 19L14 21L12 19L10 21L8 19L5 21Z" stroke="#1F1F1F" stroke-width="1.8" stroke-linecap="round" stroke-linejoin="round"></path></symbol><symbol fill="none" xmlns="http://www.w3.org/2000/svg" viewBox="0 0 24 24" id="calendar-created"><path d="M11.795 21H5C4.46957 21 3.96086 20.7893 3.58579 20.4142C3.21071 20.0391 3 19.5304 3 19V7C3 6.46957 3.21071 5.96086 3.58579 5.58579C3.96086 5.21071 4.46957 5 5 5H17C17.5304 5 18.0391 5.21071 18.4142 5.58579C18.7893 5.96086 19 6.46957 19 7V11H3M15 3V7M7 3V7M18 16.4961V18.0001L19 19.0001M22 18C22 20.2091 20.2091 22 18 22C15.7909 22 14 20.2091 14 18C14 15.7909 15.7909 14 18 14C20.2091 14 22 15.7909 22 18Z" stroke="#1F1F1F" stroke-width="1.8" stroke-linecap="round" stroke-linejoin="round"></path></symbol><symbol fill="none" xmlns="http://www.w3.org/2000/svg" viewBox="0 0 24 24" id="calendar-period"><path d="M16 3V7M8 3V7M4 11H20M6 5H18C19.1046 5 20 5.89543 20 7V19C20 20.1046 19.1046 21 18 21H6C4.89543 21 4 20.1046 4 19V7C4 5.89543 4.89543 5 6 5ZM8 15H10V17H8V15Z" stroke="#1F1F1F" stroke-width="1.8" stroke-linecap="round" stroke-linejoin="round"></path></symbol><symbol fill="none" xmlns="http://www.w3.org/2000/svg" viewBox="0 0 24 24" id="caret-down-small"><path d="M8 10L12 14L16 10H8Z" fill="#1F1F1F"></path></symbol><symbol fill="none" xmlns="http://www.w3.org/2000/svg" viewBox="0 0 24 24" id="caret-down"><path d="M6 9L12 15L18 9H6Z" fill="#1F1F1F"></path></symbol><symbol fill="none" xmlns="http://www.w3.org/2000/svg" viewBox="0 0 24 24" id="caret-up"><path d="M6 15L12 9L18 15H6Z" fill="#1F1F1F"></path></symbol><symbol fill="none" xmlns="http://www.w3.org/2000/svg" viewBox="0 0 24 24" id="check"><path d="M5 12L10 17L20 7" stroke="#1F1F1F" stroke-width="1.8" stroke-linecap="round" stroke-linejoin="round"></path></symbol>

<symbol fill="none" xmlns="http://www.w3.org/2000/svg" viewBox="0 0 24 24" id="circle-check"><path d="M9 12L11 14L15 10M21 12C21 16.9706 16.9706 21 12 21C7.02944 21 3 16.9706 3 12C3 7.02944 7.02944 3 12 3C16.9706 3 21 7.02944 21 12Z" stroke="#1F1F1F" stroke-width="1.8" stroke-linecap="round" stroke-linejoin="round"></path></symbol>

<symbol fill="none" xmlns="http://www.w3.org/2000/svg" viewBox="0 0 24 24" id="circle-plus"><path d="M9 12H15M12 9V15M21 12C21 16.9706 16.9706 21 12 21C7.02944 21 3 16.9706 3 12C3 7.02944 7.02944 3 12 3C16.9706 3 21 7.02944 21 12Z" stroke="#1F1F1F" stroke-width="1.8" stroke-linecap="round" stroke-linejoin="round"></path></symbol><symbol fill="none" xmlns="http://www.w3.org/2000/svg" viewBox="0 0 24 24" id="classify-transactions-progress"><path d="M6 9H12M4 5H8M6 5V16C6 16.2652 6.10536 16.5196 6.29289 16.7071C6.48043 16.8946 6.73478 17 7 17H11M13 7H19C19.5523 7 20 7.44772 20 8V10C20 10.5523 19.5523 11 19 11H13C12.4477 11 12 10.5523 12 10V8C12 7.44772 12.4477 7 13 7Z" stroke="#1F1F1F" stroke-width="1.8" stroke-linecap="round" stroke-linejoin="round"></path><path d="M18 14V18H22M18 14C15.7909 14 14 15.7909 14 18C14 20.2091 15.7909 22 18 22C20.2091 22 22 20.2091 22 18M18 14C20.2091 14 22 15.7909 22 18" stroke="#1F1F1F" stroke-width="1.8" stroke-linecap="round" stroke-linejoin="round"></path></symbol><symbol fill="none" xmlns="http://www.w3.org/2000/svg" viewBox="0 0 24 24" id="classify-transactions"><path d="M6 9H12M4 5H8M6 5V16C6 16.2652 6.10536 16.5196 6.29289 16.7071C6.48043 16.8946 6.73478 17 7 17H12M13 7H19C19.5523 7 20 7.44772 20 8V10C20 10.5523 19.5523 11 19 11H13C12.4477 11 12 10.5523 12 10V8C12 7.44772 12.4477 7 13 7ZM13 15H19C19.5523 15 20 15.4477 20 16V18C20 18.5523 19.5523 19 19 19H13C12.4477 19 12 18.5523 12 18V16C12 15.4477 12.4477 15 13 15Z" stroke="#1F1F1F" stroke-width="1.8" stroke-linecap="round" stroke-linejoin="round"></path></symbol><symbol fill="none" xmlns="http://www.w3.org/2000/svg" viewBox="0 0 24 24" id="close"><path d="M16 8L8 16M8 8L16 16" stroke="#1F1F1F" stroke-width="1.8" stroke-linecap="round" stroke-linejoin="round"></path></symbol><symbol fill="none" xmlns="http://www.w3.org/2000/svg" viewBox="0 0 24 24" id="cursor-text"><path d="M10 12H14M9 4C9.79565 4 10.5587 4.31607 11.1213 4.87868C11.6839 5.44129 12 6.20435 12 7M12 7V17M12 7C12 6.20435 12.3161 5.44129 12.8787 4.87868C13.4413 4.31607 14.2044 4 15 4M12 17C12 17.7956 11.6839 18.5587 11.1213 19.1213C10.5587 19.6839 9.79565 20 9 20M12 17C12 17.7956 12.3161 18.5587 12.8787 19.1213C13.4413 19.6839 14.2044 20 15 20" stroke="#1F1F1F" stroke-width="1.8" stroke-linecap="round" stroke-linejoin="round"></path></symbol><symbol fill="none" xmlns="http://www.w3.org/2000/svg" viewBox="0 0 24 24" id="dots"><path d="M5 13C5.55228 13 6 12.5523 6 12C6 11.4477 5.55228 11 5 11C4.44772 11 4 11.4477 4 12C4 12.5523 4.44772 13 5 13Z" stroke="#1F1F1F" stroke-width="1.8" stroke-linecap="round" stroke-linejoin="round"></path><path d="M12 13C12.5523 13 13 12.5523 13 12C13 11.4477 12.5523 11 12 11C11.4477 11 11 11.4477 11 12C11 12.5523 11.4477 13 12 13Z" stroke="#1F1F1F" stroke-width="1.8" stroke-linecap="round" stroke-linejoin="round"></path><path d="M19 13C19.5523 13 20 12.5523 20 12C20 11.4477 19.5523 11 19 11C18.4477 11 18 11.4477 18 12C18 12.5523 18.4477 13 19 13Z" stroke="#1F1F1F" stroke-width="1.8" stroke-linecap="round" stroke-linejoin="round"></path></symbol><symbol fill="none" xmlns="http://www.w3.org/2000/svg" viewBox="0 0 24 24" id="download"><path d="M4 17V19C4 19.5304 4.21071 20.0391 4.58579 20.4142C4.96086 20.7893 5.46957 21 6 21H18C18.5304 21 19.0391 20.7893 19.4142 20.4142C19.7893 20.0391 20 19.5304 20 19V17M7 11L12 16M12 16L17 11M12 16V4" stroke="#1F1F1F" stroke-width="1.8" stroke-linecap="round" stroke-linejoin="round"></path></symbol><symbol fill="none" xmlns="http://www.w3.org/2000/svg" viewBox="0 0 24 24" id="employees"><path d="M3 21V19C3 17.9391 3.42143 16.9217 4.17157 16.1716C4.92172 15.4214 5.93913 15 7 15H11C12.0609 15 13.0783 15.4214 13.8284 16.1716C14.5786 16.9217 15 17.9391 15 19V21M16 3.13C16.8604 3.35031 17.623 3.85071 18.1676 4.55232C18.7122 5.25392 19.0078 6.11683 19.0078 7.005C19.0078 7.89318 18.7122 8.75608 18.1676 9.45769C17.623 10.1593 16.8604 10.6597 16 10.88M21 21V19C20.9949 18.1172 20.6979 17.2608 20.1553 16.5644C19.6126 15.868 18.8548 15.3707 18 15.15M13 7C13 9.20914 11.2091 11 9 11C6.79086 11 5 9.20914 5 7C5 4.79086 6.79086 3 9 3C11.2091 3 13 4.79086 13 7Z" stroke="#1F1F1F" stroke-width="1.8" stroke-linecap="round" stroke-linejoin="round"></path></symbol><symbol fill="none" xmlns="http://www.w3.org/2000/svg" viewBox="0 0 24 24" id="eye-off"><path d="M3 3L21 21M10.584 10.587C10.2087 10.962 9.99778 11.4707 9.99759 12.0013C9.9974 12.5318 10.208 13.0407 10.583 13.416C10.958 13.7913 11.4667 14.0022 11.9973 14.0024C12.5278 14.0026 13.0367 13.792 13.412 13.417M9.363 5.365C10.2204 5.11972 11.1082 4.99684 12 5C16 5 19.333 7.333 22 12C21.222 13.361 20.388 14.524 19.497 15.488M17.357 17.349C15.726 18.449 13.942 19 12 19C8 19 4.667 16.667 2 12C3.369 9.605 4.913 7.825 6.632 6.659" stroke="#1F1F1F" stroke-width="1.8" stroke-linecap="round" stroke-linejoin="round"></path></symbol><symbol fill="none" xmlns="http://www.w3.org/2000/svg" viewBox="0 0 24 24" id="eye"><path d="M12 14C13.1046 14 14 13.1046 14 12C14 10.8954 13.1046 10 12 10C10.8954 10 10 10.8954 10 12C10 13.1046 10.8954 14 12 14Z" stroke="#1F1F1F" stroke-width="1.8" stroke-linecap="round" stroke-linejoin="round"></path><path d="M22 12C19.333 16.667 16 19 12 19C8 19 4.667 16.667 2 12C4.667 7.333 8 5 12 5C16 5 19.333 7.333 22 12Z" stroke="#1F1F1F" stroke-width="1.8" stroke-linecap="round" stroke-linejoin="round"></path></symbol><symbol fill="none" xmlns="http://www.w3.org/2000/svg" viewBox="0 0 24 24" id="file-text"><path d="M14 3V7C14 7.26522 14.1054 7.51957 14.2929 7.70711C14.4804 7.89464 14.7348 8 15 8H19M14 3H7C6.46957 3 5.96086 3.21071 5.58579 3.58579C5.21071 3.96086 5 4.46957 5 5V19C5 19.5304 5.21071 20.0391 5.58579 20.4142C5.96086 20.7893 6.46957 21 7 21H17C17.5304 21 18.0391 20.7893 18.4142 20.4142C18.7893 20.0391 19 19.5304 19 19V8M14 3L19 8M9 9H10M9 13H15M9 17H15" stroke="#1F1F1F" stroke-width="1.8" stroke-linecap="round" stroke-linejoin="round"></path></symbol><symbol fill="none" xmlns="http://www.w3.org/2000/svg" viewBox="0 0 24 24" id="info-circle"><path d="M12 8H12.01M11 12H12V16H13M21 12C21 16.9706 16.9706 21 12 21C7.02944 21 3 16.9706 3 12C3 7.02944 7.02944 3 12 3C16.9706 3 21 7.02944 21 12Z" stroke="#1F1F1F" stroke-width="1.8" stroke-linecap="round" stroke-linejoin="round"></path></symbol><symbol fill="none" xmlns="http://www.w3.org/2000/svg" viewBox="0 0 24 24" id="info"><path fill-rule="evenodd" clip-rule="evenodd" d="M12 4.75C11.3096 4.75 10.75 5.30964 10.75 6C10.75 6.69036 11.3096 7.25 12 7.25H12.02C12.7104 7.25 13.27 6.69036 13.27 6C13.27 5.30964 12.7104 4.75 12.02 4.75H12ZM10 10.1C9.50294 10.1 9.1 10.5029 9.1 11C9.1 11.4971 9.50294 11.9 10 11.9H11.1V19C11.1 19.4971 11.5029 19.9 12 19.9H14C14.4971 19.9 14.9 19.4971 14.9 19C14.9 18.5029 14.4971 18.1 14 18.1H12.9V11C12.9 10.5029 12.4971 10.1 12 10.1H10Z" fill="#1F1F1F"></path></symbol><symbol fill="none" xmlns="http://www.w3.org/2000/svg" viewBox="0 0 24 24" id="link"><path d="M10 13.9999C10.3259 14.3325 10.7148 14.5967 11.1441 14.7771C11.5734 14.9575 12.0344 15.0504 12.5 15.0504C12.9656 15.0504 13.4266 14.9575 13.8559 14.7771C14.2852 14.5967 14.6741 14.3325 15 13.9999L19 9.99989C19.663 9.33685 20.0355 8.43757 20.0355 7.49989C20.0355 6.56221 19.663 5.66293 19 4.99989C18.337 4.33685 17.4377 3.96436 16.5 3.96436C15.5623 3.96436 14.663 4.33685 14 4.99989L13.5 5.49989M14 9.99997C13.6741 9.66737 13.2852 9.40315 12.8559 9.22276C12.4266 9.04238 11.9656 8.94946 11.5 8.94946C11.0344 8.94946 10.5734 9.04238 10.1441 9.22276C9.71486 9.40315 9.32589 9.66737 9.00001 9.99997L5.00001 14C4.33697 14.663 3.96448 15.5623 3.96448 16.5C3.96448 17.4377 4.33697 18.3369 5.00001 19C5.66305 19.663 6.56233 20.0355 7.50001 20.0355C8.43769 20.0355 9.33697 19.663 10 19L10.5 18.5" stroke="#1F1F1F" stroke-width="1.8" stroke-linecap="round" stroke-linejoin="round"></path></symbol><symbol fill="none" xmlns="http://www.w3.org/2000/svg" viewBox="0 0 24 24" id="logout-left"><path d="M10 8V6C10 5.46957 10.2107 4.96086 10.5858 4.58579C10.9609 4.21071 11.4696 4 12 4H19C19.5304 4 20.0391 4.21071 20.4142 4.58579C20.7893 4.96086 21 5.46957 21 6V18C21 18.5304 20.7893 19.0391 20.4142 19.4142C20.0391 19.7893 19.5304 20 19 20H12C11.4696 20 10.9609 19.7893 10.5858 19.4142C10.2107 19.0391 10 18.5304 10 18V16M17 12H3M3 12L6 9M3 12L6 15" stroke="#1F1F1F" stroke-width="1.8" stroke-linecap="round" stroke-linejoin="round"></path></symbol><symbol fill="none" xmlns="http://www.w3.org/2000/svg" viewBox="0 0 24 24" id="logout-right"><path d="M14 8V6C14 5.46957 13.7893 4.96086 13.4142 4.58579C13.0391 4.21071 12.5304 4 12 4H5C4.46957 4 3.96086 4.21071 3.58579 4.58579C3.21071 4.96086 3 5.46957 3 6V18C3 18.5304 3.21071 19.0391 3.58579 19.4142C3.96086 19.7893 4.46957 20 5 20H12C12.5304 20 13.0391 19.7893 13.4142 19.4142C13.7893 19.0391 14 18.5304 14 18V16M7 12H21M21 12L18 9M21 12L18 15" stroke="#1F1F1F" stroke-width="1.8" stroke-linecap="round" stroke-linejoin="round"></path></symbol><symbol fill="none" xmlns="http://www.w3.org/2000/svg" viewBox="0 0 24 24" id="map-pin"><path d="M12.0006 13.9998C13.6575 13.9998 15.0006 12.6566 15.0006 10.9998C15.0006 9.3429 13.6575 7.99976 12.0006 7.99976C10.3438 7.99976 9.00061 9.3429 9.00061 10.9998C9.00061 12.6566 10.3438 13.9998 12.0006 13.9998Z" stroke="#1F1F1F" stroke-width="1.8" stroke-linecap="round" stroke-linejoin="round"></path><path d="M17.6576 16.6567L13.4146 20.8997C13.0396 21.2743 12.5312 21.4848 12.0011 21.4848C11.471 21.4848 10.9626 21.2743 10.5876 20.8997L6.34361 16.6567C5.22484 15.5379 4.46295 14.1124 4.1543 12.5606C3.84565 11.0087 4.0041 9.40022 4.60962 7.93844C5.21513 6.47665 6.24051 5.22725 7.5561 4.34821C8.87168 3.46918 10.4184 3 12.0006 3C13.5828 3 15.1295 3.46918 16.4451 4.34821C17.7607 5.22725 18.7861 6.47665 19.3916 7.93844C19.9971 9.40022 20.1556 11.0087 19.8469 12.5606C19.5383 14.1124 18.7764 15.5379 17.6576 16.6567Z" stroke="#1F1F1F" stroke-width="1.8" stroke-linecap="round" stroke-linejoin="round"></path></symbol><symbol fill="none" xmlns="http://www.w3.org/2000/svg" viewBox="0 0 24 24" id="organization"><path d="M3 20H21M5 20V6L13 2V20M19 20V10L13 6M9 8V8.01M9 11V11.01M9 14V14.01M9 17V17.01" stroke="#1F1F1F" stroke-width="1.8" stroke-linecap="round" stroke-linejoin="round"></path></symbol><symbol fill="none" xmlns="http://www.w3.org/2000/svg" viewBox="0 0 24 24" id="pencil"><path d="M13.5 6.5L17.5 10.5M4 20.0001H8L18.5 9.50006C19.0304 8.96963 19.3284 8.2502 19.3284 7.50006C19.3284 6.74991 19.0304 6.03049 18.5 5.50006C17.9696 4.96963 17.2501 4.67163 16.5 4.67163C15.7499 4.67163 15.0304 4.96963 14.5 5.50006L4 16.0001V20.0001Z" stroke="#1F1F1F" stroke-width="1.8" stroke-linecap="round" stroke-linejoin="round"></path></symbol><symbol fill="none" xmlns="http://www.w3.org/2000/svg" viewBox="0 0 24 24" id="receipt"><path d="M9 7H15M9 11H15M13 15H15M5 21V5C5 4.46957 5.21071 3.96086 5.58579 3.58579C5.96086 3.21071 6.46957 3 7 3H17C17.5304 3 18.0391 3.21071 18.4142 3.58579C18.7893 3.96086 19 4.46957 19 5V21L16 19L14 21L12 19L10 21L8 19L5 21Z" stroke="#1F1F1F" stroke-width="1.8" stroke-linecap="round" stroke-linejoin="round"></path></symbol><symbol fill="none" xmlns="http://www.w3.org/2000/svg" viewBox="0 0 24 24" id="report-compare"><path d="M15 3V7C15 7.26522 15.1054 7.51957 15.2929 7.70711C15.4804 7.89464 15.7348 8 16 8H20M15 3H11C10.4696 3 9.96086 3.21071 9.58579 3.58579C9.21071 3.96086 9 4.46957 9 5V15C9 15.5304 9.21071 16.0391 9.58579 16.4142C9.96086 16.7893 10.4696 17 11 17H18C18.5304 17 19.0391 16.7893 19.4142 16.4142C19.7893 16.0391 20 15.5304 20 15V8M15 3L20 8M16 17V19C16 19.5304 15.7893 20.0391 15.4142 20.4142C15.0391 20.7893 14.5304 21 14 21H7C6.46957 21 5.96086 20.7893 5.58579 20.4142C5.21071 20.0391 5 19.5304 5 19V9C5 8.46957 5.21071 7.96086 5.58579 7.58579C5.96086 7.21071 6.46957 7 7 7H9" stroke="#1F1F1F" stroke-width="1.8" stroke-linecap="round" stroke-linejoin="round"></path></symbol><symbol fill="none" xmlns="http://www.w3.org/2000/svg" viewBox="0 0 24 24" id="report-merge"><path d="M14 3V7C14 7.26522 14.1054 7.51957 14.2929 7.70711C14.4804 7.89464 14.7348 8 15 8H19M14 3H7C6.46957 3 5.96086 3.21071 5.58579 3.58579C5.21071 3.96086 5 4.46957 5 5V19C5 19.5304 5.21071 20.0391 5.58579 20.4142C5.96086 20.7893 6.46957 21 7 21H17C17.5304 21 18.0391 20.7893 18.4142 20.4142C18.7893 20.0391 19 19.5304 19 19V8M14 3L19 8" stroke="#1F1F1F" stroke-width="1.8" stroke-linecap="round" stroke-linejoin="round"></path><path d="M12 11V15M10 13H14" stroke="#1F1F1F" stroke-width="1.8" stroke-linecap="round" stroke-linejoin="round"></path></symbol><symbol fill="none" xmlns="http://www.w3.org/2000/svg" viewBox="0 0 24 24" id="report-review"><path d="M8 5H6C5.46957 5 4.96086 5.21071 4.58579 5.58579C4.21071 5.96086 4 6.46957 4 7V19C4 19.5304 4.21071 20.0391 4.58579 20.4142C4.96086 20.7893 5.46957 21 6 21H11.697M8 5C8 6.10457 8.89543 7 10 7H12C13.1046 7 14 6.10457 14 5M8 5C8 3.89543 8.89543 3 10 3H12C13.1046 3 14 3.89543 14 5M18 11V7C18 6.46957 17.7893 5.96086 17.4142 5.58579C17.0391 5.21071 16.5304 5 16 5H14M8 11H12M8 15H11" stroke="#1F1F1F" stroke-width="1.8" stroke-linecap="round" stroke-linejoin="round"></path><path d="M18 14V18H22M18 14C15.7909 14 14 15.7909 14 18C14 20.2091 15.7909 22 18 22C20.2091 22 22 20.2091 22 18M18 14C20.2091 14 22 15.7909 22 18" stroke="#1F1F1F" stroke-width="1.8" stroke-linecap="round" stroke-linejoin="round"></path></symbol><symbol fill="none" xmlns="http://www.w3.org/2000/svg" viewBox="0 0 24 24" id="report"><path d="M9 5H7C6.46957 5 5.96086 5.21071 5.58579 5.58579C5.21071 5.96086 5 6.46957 5 7V19C5 19.5304 5.21071 20.0391 5.58579 20.4142C5.96086 20.7893 6.46957 21 7 21H17C17.5304 21 18.0391 20.7893 18.4142 20.4142C18.7893 20.0391 19 19.5304 19 19V7C19 6.46957 18.7893 5.96086 18.4142 5.58579C18.0391 5.21071 17.5304 5 17 5H15M9 5C9 6.10457 9.89543 7 11 7H13C14.1046 7 15 6.10457 15 5M9 5C9 3.89543 9.89543 3 11 3H13C14.1046 3 15 3.89543 15 5M9 17V12M12 17V16M15 17V14" stroke="#1F1F1F" stroke-width="1.8" stroke-linecap="round" stroke-linejoin="round"></path></symbol><symbol fill="none" xmlns="http://www.w3.org/2000/svg" viewBox="0 0 24 24" id="search"><path d="M21 21L15 15M17 10C17 13.866 13.866 17 10 17C6.13401 17 3 13.866 3 10C3 6.13401 6.13401 3 10 3C13.866 3 17 6.13401 17 10Z" stroke="#1F1F1F" stroke-width="1.8" stroke-linecap="round" stroke-linejoin="round"></path></symbol><symbol fill="none" xmlns="http://www.w3.org/2000/svg" viewBox="0 0 24 24" id="settings"><path d="M10.325 4.317C10.751 2.561 13.249 2.561 13.675 4.317C13.7389 4.5808 13.8642 4.82578 14.0407 5.032C14.2172 5.23822 14.4399 5.39985 14.6907 5.50375C14.9414 5.60764 15.2132 5.65085 15.4838 5.62987C15.7544 5.60889 16.0162 5.5243 16.248 5.383C17.791 4.443 19.558 6.209 18.618 7.753C18.4769 7.98466 18.3924 8.24634 18.3715 8.51677C18.3506 8.78721 18.3938 9.05877 18.4975 9.30938C18.6013 9.55999 18.7627 9.78258 18.9687 9.95905C19.1747 10.1355 19.4194 10.2609 19.683 10.325C21.439 10.751 21.439 13.249 19.683 13.675C19.4192 13.7389 19.1742 13.8642 18.968 14.0407C18.7618 14.2172 18.6001 14.4399 18.4963 14.6907C18.3924 14.9414 18.3491 15.2132 18.3701 15.4838C18.3911 15.7544 18.4757 16.0162 18.617 16.248C19.557 17.791 17.791 19.558 16.247 18.618C16.0153 18.4769 15.7537 18.3924 15.4832 18.3715C15.2128 18.3506 14.9412 18.3938 14.6906 18.4975C14.44 18.6013 14.2174 18.7627 14.0409 18.9687C13.8645 19.1747 13.7391 19.4194 13.675 19.683C13.249 21.439 10.751 21.439 10.325 19.683C10.2611 19.4192 10.1358 19.1742 9.95929 18.968C9.7828 18.7618 9.56011 18.6001 9.30935 18.4963C9.05859 18.3924 8.78683 18.3491 8.51621 18.3701C8.24559 18.3911 7.98375 18.4757 7.752 18.617C6.209 19.557 4.442 17.791 5.382 16.247C5.5231 16.0153 5.60755 15.7537 5.62848 15.4832C5.64942 15.2128 5.60624 14.9412 5.50247 14.6906C5.3987 14.44 5.23726 14.2174 5.03127 14.0409C4.82529 13.8645 4.58056 13.7391 4.317 13.675C2.561 13.249 2.561 10.751 4.317 10.325C4.5808 10.2611 4.82578 10.1358 5.032 9.95929C5.23822 9.7828 5.39985 9.56011 5.50375 9.30935C5.60764 9.05859 5.65085 8.78683 5.62987 8.51621C5.60889 8.24559 5.5243 7.98375 5.383 7.752C4.443 6.209 6.209 4.442 7.753 5.382C8.753 5.99 10.049 5.452 10.325 4.317Z" stroke="#1F1F1F" stroke-width="1.8" stroke-linecap="round" stroke-linejoin="round"></path><path d="M12 15C13.6569 15 15 13.6569 15 12C15 10.3431 13.6569 9 12 9C10.3431 9 9 10.3431 9 12C9 13.6569 10.3431 15 12 15Z" stroke="#1F1F1F" stroke-width="1.8" stroke-linecap="round" stroke-linejoin="round"></path></symbol><symbol fill="none" xmlns="http://www.w3.org/2000/svg" viewBox="0 0 24 24" id="share"><path fill-rule="evenodd" clip-rule="evenodd" d="M12.6364 1.36361C12.2849 1.01214 11.7151 1.01214 11.3636 1.36361L8.3636 4.36361C8.01213 4.71508 8.01213 5.28493 8.3636 5.6364C8.71507 5.98787 9.28492 5.98787 9.63639 5.6364L11.1 4.1728V14C11.1 14.4971 11.5029 14.9 12 14.9C12.4971 14.9 12.9 14.4971 12.9 14V4.1728L14.3636 5.6364C14.7151 5.98787 15.2849 5.98787 15.6364 5.6364C15.9879 5.28493 15.9879 4.71508 15.6364 4.36361L12.6364 1.36361ZM3.1 19C3.1 19.7691 3.40553 20.5068 3.94939 21.0506C4.49324 21.5945 5.23087 21.9 6 21.9H8H16H18C18.7691 21.9 19.5068 21.5945 20.0506 21.0506C20.5945 20.5068 20.9 19.7691 20.9 19V11V10C20.9 9.23088 20.5945 8.49325 20.0506 7.9494C19.5068 7.40554 18.7691 7.10001 18 7.10001H17C16.5029 7.10001 16.1 7.50295 16.1 8.00001C16.1 8.49706 16.5029 8.90001 17 8.90001H18C18.2917 8.90001 18.5715 9.0159 18.7778 9.22219C18.9841 9.42848 19.1 9.70827 19.1 10V11V19C19.1 19.2917 18.9841 19.5715 18.7778 19.7778C18.5715 19.9841 18.2917 20.1 18 20.1H16H8H6C5.70826 20.1 5.42847 19.9841 5.22218 19.7778C5.01589 19.5715 4.9 19.2917 4.9 19V11V10C4.9 9.70827 5.01589 9.42848 5.22218 9.22219C5.42847 9.0159 5.70826 8.90001 6 8.90001H7C7.49706 8.90001 7.9 8.49706 7.9 8.00001C7.9 7.50295 7.49706 7.10001 7 7.10001H6C5.23087 7.10001 4.49324 7.40554 3.94939 7.9494C3.40553 8.49325 3.1 9.23088 3.1 10V11V19Z" fill="#1F1F1F"></path></symbol><symbol fill="none" xmlns="http://www.w3.org/2000/svg" viewBox="0 0 24 24" id="square-plus"><path d="M9 12H15M12 9V15M6 4H18C19.1046 4 20 4.89543 20 6V18C20 19.1046 19.1046 20 18 20H6C4.89543 20 4 19.1046 4 18V6C4 4.89543 4.89543 4 6 4Z" stroke="#1F1F1F" stroke-width="1.8" stroke-linecap="round" stroke-linejoin="round"></path></symbol><symbol fill="none" xmlns="http://www.w3.org/2000/svg" viewBox="0 0 24 24" id="trash"><path d="M4 7H20M10 11V17M14 11V17M5 7L6 19C6 19.5304 6.21071 20.0391 6.58579 20.4142C6.96086 20.7893 7.46957 21 8 21H16C16.5304 21 17.0391 20.7893 17.4142 20.4142C17.7893 20.0391 18 19.5304 18 19L19 7M9 7V4C9 3.73478 9.10536 3.48043 9.29289 3.29289C9.48043 3.10536 9.73478 3 10 3H14C14.2652 3 14.5196 3.10536 14.7071 3.29289C14.8946 3.48043 15 3.73478 15 4V7" stroke="#1F1F1F" stroke-width="1.8" stroke-linecap="round" stroke-linejoin="round"></path></symbol><symbol fill="none" xmlns="http://www.w3.org/2000/svg" viewBox="0 0 24 24" id="user-plus"><path d="M3 21V19C3 17.9391 3.42143 16.9217 4.17157 16.1716C4.92172 15.4214 5.93913 15 7 15H11C12.0609 15 13.0783 15.4214 13.8284 16.1716C14.5786 16.9217 15 17.9391 15 19V21M16 11H22M19 8V14M13 7C13 9.20914 11.2091 11 9 11C6.79086 11 5 9.20914 5 7C5 4.79086 6.79086 3 9 3C11.2091 3 13 4.79086 13 7Z" stroke="#1F1F1F" stroke-width="1.8" stroke-linecap="round" stroke-linejoin="round"></path></symbol><symbol fill="none" xmlns="http://www.w3.org/2000/svg" viewBox="0 0 24 24" id="user"><path d="M6 21V19C6 17.9391 6.42143 16.9217 7.17157 16.1716C7.92172 15.4214 8.93913 15 10 15H14C15.0609 15 16.0783 15.4214 16.8284 16.1716C17.5786 16.9217 18 17.9391 18 19V21M16 7C16 9.20914 14.2091 11 12 11C9.79086 11 8 9.20914 8 7C8 4.79086 9.79086 3 12 3C14.2091 3 16 4.79086 16 7Z" stroke="#1F1F1F" stroke-width="1.8" stroke-linecap="round" stroke-linejoin="round"></path></symbol></svg>